<svg xmlns="http://www.w3.org/2000/svg" width="178" height="178" fill="none"><circle cx="89" cy="89" r="89" fill="#F5F5F5"/><path fill="#000" d="M66.5 92.75h-15c-2.25 0-3.75 1.5-3.75 3.75v30c0 2.25 1.5 3.75 3.75 3.75h15c2.25 0 3.75-1.5 3.75-3.75v-30c0-2.25-1.5-3.75-3.75-3.75Zm60-15h-15c-2.25 0-3.75 1.5-3.75 3.75v45c0 2.25 1.5 3.75 3.75 3.75h15c2.25 0 3.75-1.5 3.75-3.75v-45c0-2.25-1.5-3.75-3.75-3.75Zm-30-30h-15c-2.25 0-3.75 1.5-3.75 3.75v75c0 2.25 1.5 3.75 3.75 3.75h15c2.25 0 3.75-1.5 3.75-3.75v-75c0-2.25-1.5-3.75-3.75-3.75Z"/></svg>