<svg xmlns="http://www.w3.org/2000/svg" width="178" height="178" fill="none"><circle cx="89" cy="89" r="89" fill="#F5F5F5"/><path fill="#000" fill-rule="evenodd" d="M89.075 55.25c-8.47 0-16.187 2.797-20.752 5.083-.413.206-.797.409-1.155.604-.71.386-1.313.746-1.793 1.063l5.194 7.646 2.445.973c9.555 4.821 22.368 4.821 31.925 0l2.775-1.44L112.627 62a29.064 29.064 0 0 0-3.169-1.794c-4.541-2.262-12.073-4.956-20.383-4.956Zm-12.08 8.655a46.09 46.09 0 0 1-5.44-1.365c4.277-1.9 10.652-3.915 17.518-3.915 4.757 0 9.255.968 12.975 2.194-4.36.613-9.011 1.653-13.444 2.934-3.487 1.009-7.563.9-11.61.152Zm29.924 9.495-.459.232c-10.513 5.303-24.456 5.303-34.969 0l-.435-.22c-15.791 17.326-27.847 49.332 18.019 49.332 45.863 0 33.512-32.604 17.844-49.344ZM87.125 89a3.75 3.75 0 1 0 0 7.5V89Zm3.75-3.75v-1.875h-3.75v1.875a7.5 7.5 0 0 0 0 15v7.5a3.749 3.749 0 0 1-3.536-2.499 1.878 1.878 0 0 0-2.393-1.144 1.875 1.875 0 0 0-1.144 2.392 7.503 7.503 0 0 0 7.073 5.001v1.875h3.75V111.5a7.498 7.498 0 0 0 7.5-7.5 7.5 7.5 0 0 0-7.5-7.5V89c1.631 0 3.02 1.04 3.538 2.5a1.876 1.876 0 1 0 3.535-1.25 7.502 7.502 0 0 0-7.073-5Zm0 15v7.5a3.75 3.75 0 1 0 0-7.5Z" clip-rule="evenodd"/></svg>