<svg xmlns="http://www.w3.org/2000/svg" width="178" height="178" fill="none"><circle cx="89" cy="89" r="89" fill="#F5F5F5"/><path fill="#000" d="M113.75 65.25H91.543L80.71 76.648l-.5.478a6.75 6.75 0 0 1-3.703 1.588l-.693.036H53v31.5l.023.738A11.25 11.25 0 0 0 64.25 121.5h29.421a14.822 14.822 0 0 1-.171-2.25 11.25 11.25 0 0 1 10.229-11.205 13.493 13.493 0 0 1-3.407-10.228 13.497 13.497 0 0 1 15.614-12.122A13.505 13.505 0 0 1 125 91.53V76.5l-.022-.738-.072-.729a11.248 11.248 0 0 0-11.156-9.783Zm-34.056-5.805a6.75 6.75 0 0 0-3.443-.945H64.25l-.738.023A11.25 11.25 0 0 0 53 69.75v4.5h22.815l.369-.031c.36-.06.7-.204.99-.423l.274-.248 8.785-9.243-5.931-4.455-.608-.405ZM122.75 99a9 9 0 1 1-18 0 9 9 0 0 1 18 0Zm6.75 20.25c0 5.603-4.5 11.25-15.75 11.25S98 124.875 98 119.25a6.75 6.75 0 0 1 6.75-6.75h18a6.75 6.75 0 0 1 6.75 6.75Z"/></svg>